<svg width="430" height="1079" viewBox="0 0 430 1079" fill="none" xmlns="http://www.w3.org/2000/svg">
<g clip-path="url(#clip0_0_757)">
<rect width="430" height="1079" fill="url(#paint0_linear_0_757)"/>
<rect width="430" height="1079" fill="#071C46"/>
<path d="M429.978 824.692H321.533L298.286 719.425L229.269 406.685C229.251 406.484 229.214 406.285 229.159 406.09L227.838 400.095C227.112 397.034 226.253 393.994 225.307 390.997C225.193 390.793 225.126 390.569 225.109 390.338C224.844 389.573 224.624 388.871 224.316 388.212C223.303 385.215 222.115 382.218 220.992 379.327C218.403 373.019 215.342 366.902 211.834 361.024C194.186 330.928 165.276 308.497 131.039 298.336C118.734 294.775 105.954 292.977 93.1079 293H-44V470.245H68.2753L91.5229 575.512L157.567 874.987L164.92 908.212C165.559 910.083 166.241 911.911 166.967 913.76C168.398 917.204 169.873 920.563 171.502 923.858L175.905 932.233C179.751 938.9 184.169 945.243 189.114 951.195C194.363 957.558 200.151 963.488 206.418 968.923C225.643 985.505 249.374 996.435 274.818 1000.43C278.45 1000.92 282.127 1001.38 285.825 1001.64C289.083 1001.85 292.43 1002 295.71 1002H430V824.989H429.89L429.978 824.692Z" fill="#092458"/>
<path d="M305.196 419.027H295.371C293.531 419.027 293.531 418.371 293.531 418.02C293.531 417.668 293.531 417.069 295.371 417.069H298.741C307.519 417.069 313.418 412.188 313.418 404.924C313.42 404.242 313.362 403.56 313.244 402.887C313.296 402.534 313.357 402.494 313.91 402.494H317.289V393.783H314.587C312.292 393.783 310.627 394.922 309.946 396.852C307.182 394.207 303.06 392.717 298.377 392.717C289.518 392.717 283.333 397.736 283.333 404.924C283.333 408.767 285.067 411.965 288.169 413.974C285.483 414.968 283.765 417.351 283.765 420.272C283.765 422.634 284.741 424.594 286.553 425.947C284.419 426.816 282.977 428.37 282.422 430.397L282.162 430.134V432.355C282.162 437.142 286.064 440 292.6 440H305.196C312.847 440 317.599 435.96 317.599 429.454C317.592 423.022 312.84 419.027 305.196 419.027ZM294.948 427.504H303.475C305.674 427.504 306.79 428.334 306.79 429.995C306.79 431.656 305.674 432.487 303.475 432.487H294.693C291.891 432.413 291.561 431.074 291.561 430.06C291.568 428.361 292.699 427.504 294.941 427.504H294.948ZM298.391 401.193C299.813 401.193 303.125 401.597 303.125 405.345C303.125 409.248 299.507 409.553 298.391 409.553C295.469 409.553 293.723 407.98 293.723 405.345C293.712 402.744 295.457 401.193 298.379 401.193H298.391Z" fill="white"/>
<path d="M282.141 419.441H280.055C278.84 419.441 278.64 419.25 278.64 418.076V405.101C278.64 400.477 276.566 392.717 262.676 392.717C249.541 392.717 246.312 399.482 245.915 405.157L245.849 406.106H257.424L257.458 405.252C257.602 401.893 260.541 401.188 262.988 401.188C264.391 401.188 267.656 401.476 267.656 404.152C267.656 404.8 267.656 406.523 263.909 406.523H258.385C251.734 406.523 244.628 409.496 244.628 417.841C244.628 424.748 249.588 429.212 257.266 429.217H257.28C261.967 429.217 265.821 427.451 268.217 424.297C268.979 426.77 271.34 428.152 274.959 428.152H282.146L282.141 419.441ZM260.205 420.51C258.34 420.471 256.23 419.876 256.23 417.371C256.23 415.47 257.61 414.432 260.356 414.285L262.625 414.108C264.846 413.943 266.481 413.462 267.656 412.595V412.925C267.656 419.96 262.11 420.507 260.41 420.507L260.205 420.51Z" fill="white"/>
<path d="M242.637 416.62H235.571L234.056 409.766L229.559 389.402C229.558 389.389 229.555 389.376 229.552 389.364L229.465 388.973C229.418 388.774 229.362 388.576 229.301 388.381C229.293 388.368 229.289 388.353 229.288 388.338C229.27 388.288 229.256 388.243 229.236 388.2C229.17 388.004 229.093 387.809 229.019 387.621C228.851 387.21 228.651 386.812 228.423 386.429C227.273 384.47 225.389 383.009 223.158 382.347C222.356 382.116 221.523 381.999 220.686 382H211.752V393.541H219.068L220.583 400.395L224.886 419.895L225.366 422.059C225.407 422.18 225.452 422.3 225.499 422.42C225.592 422.644 225.688 422.863 225.795 423.077L226.081 423.623C226.332 424.057 226.62 424.47 226.942 424.857C227.284 425.272 227.661 425.658 228.07 426.012C229.322 427.091 230.869 427.803 232.527 428.063C232.763 428.095 233.003 428.125 233.244 428.142C233.456 428.156 233.674 428.166 233.888 428.166H242.639V416.64H242.632L242.637 416.62Z" fill="#FF8A00"/>
<path d="M203.416 406.408H199.36C196.061 406.408 195.612 405.179 195.612 403.978C195.612 401.554 198.306 401.193 199.915 401.193C203.005 401.193 204.532 402.516 204.583 405.237L204.599 406.11H215.652L215.636 405.207C215.502 397.389 209.58 392.722 199.795 392.722C190.284 392.722 184.137 397.28 184.137 404.333C184.137 410.657 188.871 414.586 196.474 414.586H200.158C204.642 414.586 204.642 416.726 204.642 417.429C204.642 419.537 202.921 420.751 199.908 420.751C196.526 420.751 194.859 419.351 194.811 416.472L194.797 415.597H184.661L183.493 415.044L183.517 416.492C183.661 424.459 189.808 429.216 199.976 429.216C210.017 429.216 216.25 424.585 216.25 417.13C216.25 410.417 211.452 406.408 203.416 406.408Z" fill="white"/>
<path d="M164.387 392.722C153.477 392.722 146.147 400.058 146.147 410.97C146.147 421.883 153.477 429.217 164.387 429.217C175.296 429.217 182.627 421.881 182.627 410.97C182.627 400.059 175.296 392.722 164.387 392.722ZM171.02 410.97C171.02 415.43 169.872 420.746 164.387 420.746C158.901 420.746 157.752 415.43 157.752 410.97C157.752 406.511 158.899 401.193 164.387 401.193C169.874 401.193 171.02 406.509 171.02 410.97Z" fill="white"/>
<path d="M131.953 392.722H112V428.156H122.99V408.007C122.99 401.908 126.898 401.251 128.585 401.251C131.763 401.251 133.376 403.303 133.376 407.353V428.152H144.366V406.282C144.359 397.918 139.605 392.722 131.953 392.722Z" fill="white"/>
</g>
<defs>
<linearGradient id="paint0_linear_0_757" x1="215" y1="0" x2="215" y2="1079" gradientUnits="userSpaceOnUse">
<stop stop-color="white"/>
<stop offset="1" stop-color="#999999"/>
</linearGradient>
<clipPath id="clip0_0_757">
<rect width="430" height="1079" fill="white"/>
</clipPath>
</defs>
</svg>
