<svg width="17" height="18" viewBox="0 0 17 18" fill="none" xmlns="http://www.w3.org/2000/svg">
<path d="M8.98873 9.045C8.85857 9.16938 8.68948 9.23823 8.51415 9.23823C8.33882 9.23823 8.16972 9.16938 8.03956 9.045L2.0329 3.2625C2.2686 3.09154 2.54761 3.00004 2.83331 3H14.1666C14.4523 3.00004 14.7314 3.09154 14.9671 3.2625L8.98873 9.045Z" fill="#878594"/>
<path d="M15.5834 4.69501V12.75C15.5834 13.3467 15.3595 13.919 14.961 14.341C14.5624 14.763 14.0219 15 13.4584 15H3.54169C2.9781 15 2.4376 14.763 2.03909 14.341C1.64057 13.919 1.41669 13.3467 1.41669 12.75V4.69501L7.56502 10.635C7.82431 10.8735 8.15659 11.0041 8.50002 11.0025C8.84774 11.0017 9.18305 10.8656 9.4421 10.62L15.5834 4.69501Z" fill="#878594"/>
</svg>
