<svg width="17" height="18" viewBox="0 0 17 18" fill="none" xmlns="http://www.w3.org/2000/svg">
<path d="M12.75 6V4.5C12.75 3.30653 12.3022 2.16193 11.5052 1.31802C10.7082 0.474106 9.62717 0 8.5 0C7.37283 0 6.29183 0.474106 5.4948 1.31802C4.69777 2.16193 4.25 3.30653 4.25 4.5V6C3.68693 6.00178 3.14741 6.2394 2.74926 6.66098C2.3511 7.08255 2.12668 7.65381 2.125 8.25V13.5C2.125 14.6935 2.57277 15.8381 3.3698 16.682C4.16683 17.5259 5.24783 18 6.375 18H10.625C11.7522 18 12.8332 17.5259 13.6302 16.682C14.4272 15.8381 14.875 14.6935 14.875 13.5V8.25C14.8733 7.65381 14.6489 7.08255 14.2507 6.66098C13.8526 6.2394 13.3131 6.00178 12.75 6ZM5.66667 4.5C5.66667 3.70435 5.96518 2.94129 6.49653 2.37868C7.02788 1.81607 7.74855 1.5 8.5 1.5C9.25145 1.5 9.97212 1.81607 10.5035 2.37868C11.0348 2.94129 11.3333 3.70435 11.3333 4.5V6H5.66667V4.5ZM9.20833 13.5C9.20833 13.6989 9.13371 13.8897 9.00087 14.0303C8.86803 14.171 8.68786 14.25 8.5 14.25C8.31214 14.25 8.13197 14.171 7.99913 14.0303C7.86629 13.8897 7.79167 13.6989 7.79167 13.5V10.5C7.79167 10.3011 7.86629 10.1103 7.99913 9.96967C8.13197 9.82902 8.31214 9.75 8.5 9.75C8.68786 9.75 8.86803 9.82902 9.00087 9.96967C9.13371 10.1103 9.20833 10.3011 9.20833 10.5V13.5Z" fill="#878594"/>
</svg>
